<mxfile host="app.diagrams.net" modified="2024-01-15T23:43:02.158Z" agent="Mozilla/5.0 (Windows NT 10.0; Win64; x64) AppleWebKit/537.36 (KHTML, like Gecko) Chrome/120.0.0.0 Safari/537.36" etag="MUScCr2Z2weCcG3orV4Z" version="22.1.18" type="device">
  <diagram id="R2lEEEUBdFMjLlhIrx00" name="Page-1">
    <mxGraphModel dx="2524" dy="746" grid="1" gridSize="10" guides="1" tooltips="1" connect="1" arrows="1" fold="1" page="1" pageScale="1" pageWidth="850" pageHeight="1100" math="0" shadow="0" extFonts="Permanent Marker^https://fonts.googleapis.com/css?family=Permanent+Marker">
      <root>
        <mxCell id="0" />
        <mxCell id="1" parent="0" />
        <mxCell id="WeHdpMZT5rW-bKwTxEje-1" value="KLIENT" style="swimlane;fontStyle=0;childLayout=stackLayout;horizontal=1;startSize=30;horizontalStack=0;resizeParent=1;resizeParentMax=0;resizeLast=0;collapsible=1;marginBottom=0;whiteSpace=wrap;html=1;" vertex="1" parent="1">
          <mxGeometry x="-680" y="320" width="140" height="240" as="geometry" />
        </mxCell>
        <mxCell id="WeHdpMZT5rW-bKwTxEje-2" value="ID_klienta" style="text;strokeColor=none;fillColor=none;align=left;verticalAlign=middle;spacingLeft=4;spacingRight=4;overflow=hidden;points=[[0,0.5],[1,0.5]];portConstraint=eastwest;rotatable=0;whiteSpace=wrap;html=1;" vertex="1" parent="WeHdpMZT5rW-bKwTxEje-1">
          <mxGeometry y="30" width="140" height="30" as="geometry" />
        </mxCell>
        <mxCell id="WeHdpMZT5rW-bKwTxEje-3" value="Imie" style="text;strokeColor=none;fillColor=none;align=left;verticalAlign=middle;spacingLeft=4;spacingRight=4;overflow=hidden;points=[[0,0.5],[1,0.5]];portConstraint=eastwest;rotatable=0;whiteSpace=wrap;html=1;" vertex="1" parent="WeHdpMZT5rW-bKwTxEje-1">
          <mxGeometry y="60" width="140" height="30" as="geometry" />
        </mxCell>
        <mxCell id="WeHdpMZT5rW-bKwTxEje-4" value="Nazwisko" style="text;strokeColor=none;fillColor=none;align=left;verticalAlign=middle;spacingLeft=4;spacingRight=4;overflow=hidden;points=[[0,0.5],[1,0.5]];portConstraint=eastwest;rotatable=0;whiteSpace=wrap;html=1;" vertex="1" parent="WeHdpMZT5rW-bKwTxEje-1">
          <mxGeometry y="90" width="140" height="30" as="geometry" />
        </mxCell>
        <mxCell id="WeHdpMZT5rW-bKwTxEje-5" value="Nr_telefonu" style="text;strokeColor=none;fillColor=none;align=left;verticalAlign=middle;spacingLeft=4;spacingRight=4;overflow=hidden;points=[[0,0.5],[1,0.5]];portConstraint=eastwest;rotatable=0;whiteSpace=wrap;html=1;" vertex="1" parent="WeHdpMZT5rW-bKwTxEje-1">
          <mxGeometry y="120" width="140" height="30" as="geometry" />
        </mxCell>
        <mxCell id="WeHdpMZT5rW-bKwTxEje-6" value="Email" style="text;strokeColor=none;fillColor=none;align=left;verticalAlign=middle;spacingLeft=4;spacingRight=4;overflow=hidden;points=[[0,0.5],[1,0.5]];portConstraint=eastwest;rotatable=0;whiteSpace=wrap;html=1;" vertex="1" parent="WeHdpMZT5rW-bKwTxEje-1">
          <mxGeometry y="150" width="140" height="30" as="geometry" />
        </mxCell>
        <mxCell id="WeHdpMZT5rW-bKwTxEje-7" value="Pesel" style="text;strokeColor=none;fillColor=none;align=left;verticalAlign=middle;spacingLeft=4;spacingRight=4;overflow=hidden;points=[[0,0.5],[1,0.5]];portConstraint=eastwest;rotatable=0;whiteSpace=wrap;html=1;" vertex="1" parent="WeHdpMZT5rW-bKwTxEje-1">
          <mxGeometry y="180" width="140" height="30" as="geometry" />
        </mxCell>
        <mxCell id="WeHdpMZT5rW-bKwTxEje-8" value="ID_adresu" style="text;strokeColor=none;fillColor=none;align=left;verticalAlign=middle;spacingLeft=4;spacingRight=4;overflow=hidden;points=[[0,0.5],[1,0.5]];portConstraint=eastwest;rotatable=0;whiteSpace=wrap;html=1;" vertex="1" parent="WeHdpMZT5rW-bKwTxEje-1">
          <mxGeometry y="210" width="140" height="30" as="geometry" />
        </mxCell>
        <mxCell id="WeHdpMZT5rW-bKwTxEje-9" value="REZERWACJA" style="swimlane;fontStyle=0;childLayout=stackLayout;horizontal=1;startSize=30;horizontalStack=0;resizeParent=1;resizeParentMax=0;resizeLast=0;collapsible=1;marginBottom=0;whiteSpace=wrap;html=1;" vertex="1" parent="1">
          <mxGeometry x="-460" y="20" width="140" height="210" as="geometry" />
        </mxCell>
        <mxCell id="WeHdpMZT5rW-bKwTxEje-10" value="ID_rezerwacji" style="text;strokeColor=none;fillColor=none;align=left;verticalAlign=middle;spacingLeft=4;spacingRight=4;overflow=hidden;points=[[0,0.5],[1,0.5]];portConstraint=eastwest;rotatable=0;whiteSpace=wrap;html=1;" vertex="1" parent="WeHdpMZT5rW-bKwTxEje-9">
          <mxGeometry y="30" width="140" height="30" as="geometry" />
        </mxCell>
        <mxCell id="WeHdpMZT5rW-bKwTxEje-11" value="ID_klienra" style="text;strokeColor=none;fillColor=none;align=left;verticalAlign=middle;spacingLeft=4;spacingRight=4;overflow=hidden;points=[[0,0.5],[1,0.5]];portConstraint=eastwest;rotatable=0;whiteSpace=wrap;html=1;" vertex="1" parent="WeHdpMZT5rW-bKwTxEje-9">
          <mxGeometry y="60" width="140" height="30" as="geometry" />
        </mxCell>
        <mxCell id="WeHdpMZT5rW-bKwTxEje-13" value="ID_pracownika" style="text;strokeColor=none;fillColor=none;align=left;verticalAlign=middle;spacingLeft=4;spacingRight=4;overflow=hidden;points=[[0,0.5],[1,0.5]];portConstraint=eastwest;rotatable=0;whiteSpace=wrap;html=1;" vertex="1" parent="WeHdpMZT5rW-bKwTxEje-9">
          <mxGeometry y="90" width="140" height="30" as="geometry" />
        </mxCell>
        <mxCell id="WeHdpMZT5rW-bKwTxEje-14" value="Data_poczatkowa" style="text;strokeColor=none;fillColor=none;align=left;verticalAlign=middle;spacingLeft=4;spacingRight=4;overflow=hidden;points=[[0,0.5],[1,0.5]];portConstraint=eastwest;rotatable=0;whiteSpace=wrap;html=1;" vertex="1" parent="WeHdpMZT5rW-bKwTxEje-9">
          <mxGeometry y="120" width="140" height="30" as="geometry" />
        </mxCell>
        <mxCell id="WeHdpMZT5rW-bKwTxEje-15" value="Data_koncowa" style="text;strokeColor=none;fillColor=none;align=left;verticalAlign=middle;spacingLeft=4;spacingRight=4;overflow=hidden;points=[[0,0.5],[1,0.5]];portConstraint=eastwest;rotatable=0;whiteSpace=wrap;html=1;" vertex="1" parent="WeHdpMZT5rW-bKwTxEje-9">
          <mxGeometry y="150" width="140" height="30" as="geometry" />
        </mxCell>
        <mxCell id="WeHdpMZT5rW-bKwTxEje-16" value="Status" style="text;strokeColor=none;fillColor=none;align=left;verticalAlign=middle;spacingLeft=4;spacingRight=4;overflow=hidden;points=[[0,0.5],[1,0.5]];portConstraint=eastwest;rotatable=0;whiteSpace=wrap;html=1;" vertex="1" parent="WeHdpMZT5rW-bKwTxEje-9">
          <mxGeometry y="180" width="140" height="30" as="geometry" />
        </mxCell>
        <mxCell id="WeHdpMZT5rW-bKwTxEje-17" value="POKOJ" style="swimlane;fontStyle=0;childLayout=stackLayout;horizontal=1;startSize=30;horizontalStack=0;resizeParent=1;resizeParentMax=0;resizeLast=0;collapsible=1;marginBottom=0;whiteSpace=wrap;html=1;" vertex="1" parent="1">
          <mxGeometry x="-680" y="160" width="140" height="150" as="geometry" />
        </mxCell>
        <mxCell id="WeHdpMZT5rW-bKwTxEje-18" value="Nr_pokoju" style="text;strokeColor=none;fillColor=none;align=left;verticalAlign=middle;spacingLeft=4;spacingRight=4;overflow=hidden;points=[[0,0.5],[1,0.5]];portConstraint=eastwest;rotatable=0;whiteSpace=wrap;html=1;" vertex="1" parent="WeHdpMZT5rW-bKwTxEje-17">
          <mxGeometry y="30" width="140" height="30" as="geometry" />
        </mxCell>
        <mxCell id="WeHdpMZT5rW-bKwTxEje-19" value="Typ" style="text;strokeColor=none;fillColor=none;align=left;verticalAlign=middle;spacingLeft=4;spacingRight=4;overflow=hidden;points=[[0,0.5],[1,0.5]];portConstraint=eastwest;rotatable=0;whiteSpace=wrap;html=1;" vertex="1" parent="WeHdpMZT5rW-bKwTxEje-17">
          <mxGeometry y="60" width="140" height="30" as="geometry" />
        </mxCell>
        <mxCell id="WeHdpMZT5rW-bKwTxEje-20" value="Cena_za_noc" style="text;strokeColor=none;fillColor=none;align=left;verticalAlign=middle;spacingLeft=4;spacingRight=4;overflow=hidden;points=[[0,0.5],[1,0.5]];portConstraint=eastwest;rotatable=0;whiteSpace=wrap;html=1;" vertex="1" parent="WeHdpMZT5rW-bKwTxEje-17">
          <mxGeometry y="90" width="140" height="30" as="geometry" />
        </mxCell>
        <mxCell id="WeHdpMZT5rW-bKwTxEje-21" value="Dodatkowe_informacje" style="text;strokeColor=none;fillColor=none;align=left;verticalAlign=middle;spacingLeft=4;spacingRight=4;overflow=hidden;points=[[0,0.5],[1,0.5]];portConstraint=eastwest;rotatable=0;whiteSpace=wrap;html=1;" vertex="1" parent="WeHdpMZT5rW-bKwTxEje-17">
          <mxGeometry y="120" width="140" height="30" as="geometry" />
        </mxCell>
        <mxCell id="WeHdpMZT5rW-bKwTxEje-25" value="PRACOWNIK" style="swimlane;fontStyle=0;childLayout=stackLayout;horizontal=1;startSize=30;horizontalStack=0;resizeParent=1;resizeParentMax=0;resizeLast=0;collapsible=1;marginBottom=0;whiteSpace=wrap;html=1;" vertex="1" parent="1">
          <mxGeometry x="-260" y="230" width="140" height="300" as="geometry" />
        </mxCell>
        <mxCell id="WeHdpMZT5rW-bKwTxEje-26" value="ID_pracownika" style="text;strokeColor=none;fillColor=none;align=left;verticalAlign=middle;spacingLeft=4;spacingRight=4;overflow=hidden;points=[[0,0.5],[1,0.5]];portConstraint=eastwest;rotatable=0;whiteSpace=wrap;html=1;" vertex="1" parent="WeHdpMZT5rW-bKwTxEje-25">
          <mxGeometry y="30" width="140" height="30" as="geometry" />
        </mxCell>
        <mxCell id="WeHdpMZT5rW-bKwTxEje-27" value="Imie" style="text;strokeColor=none;fillColor=none;align=left;verticalAlign=middle;spacingLeft=4;spacingRight=4;overflow=hidden;points=[[0,0.5],[1,0.5]];portConstraint=eastwest;rotatable=0;whiteSpace=wrap;html=1;" vertex="1" parent="WeHdpMZT5rW-bKwTxEje-25">
          <mxGeometry y="60" width="140" height="30" as="geometry" />
        </mxCell>
        <mxCell id="WeHdpMZT5rW-bKwTxEje-28" value="Nazwisko" style="text;strokeColor=none;fillColor=none;align=left;verticalAlign=middle;spacingLeft=4;spacingRight=4;overflow=hidden;points=[[0,0.5],[1,0.5]];portConstraint=eastwest;rotatable=0;whiteSpace=wrap;html=1;" vertex="1" parent="WeHdpMZT5rW-bKwTxEje-25">
          <mxGeometry y="90" width="140" height="30" as="geometry" />
        </mxCell>
        <mxCell id="WeHdpMZT5rW-bKwTxEje-29" value="Pesel" style="text;strokeColor=none;fillColor=none;align=left;verticalAlign=middle;spacingLeft=4;spacingRight=4;overflow=hidden;points=[[0,0.5],[1,0.5]];portConstraint=eastwest;rotatable=0;whiteSpace=wrap;html=1;" vertex="1" parent="WeHdpMZT5rW-bKwTxEje-25">
          <mxGeometry y="120" width="140" height="30" as="geometry" />
        </mxCell>
        <mxCell id="WeHdpMZT5rW-bKwTxEje-30" value="Nr_telefonu" style="text;strokeColor=none;fillColor=none;align=left;verticalAlign=middle;spacingLeft=4;spacingRight=4;overflow=hidden;points=[[0,0.5],[1,0.5]];portConstraint=eastwest;rotatable=0;whiteSpace=wrap;html=1;" vertex="1" parent="WeHdpMZT5rW-bKwTxEje-25">
          <mxGeometry y="150" width="140" height="30" as="geometry" />
        </mxCell>
        <mxCell id="WeHdpMZT5rW-bKwTxEje-31" value="ID_stanowiska" style="text;strokeColor=none;fillColor=none;align=left;verticalAlign=middle;spacingLeft=4;spacingRight=4;overflow=hidden;points=[[0,0.5],[1,0.5]];portConstraint=eastwest;rotatable=0;whiteSpace=wrap;html=1;" vertex="1" parent="WeHdpMZT5rW-bKwTxEje-25">
          <mxGeometry y="180" width="140" height="30" as="geometry" />
        </mxCell>
        <mxCell id="WeHdpMZT5rW-bKwTxEje-33" value="Data_zatrudnienia" style="text;strokeColor=none;fillColor=none;align=left;verticalAlign=middle;spacingLeft=4;spacingRight=4;overflow=hidden;points=[[0,0.5],[1,0.5]];portConstraint=eastwest;rotatable=0;whiteSpace=wrap;html=1;" vertex="1" parent="WeHdpMZT5rW-bKwTxEje-25">
          <mxGeometry y="210" width="140" height="30" as="geometry" />
        </mxCell>
        <mxCell id="WeHdpMZT5rW-bKwTxEje-34" value="Data_zwolnienia" style="text;strokeColor=none;fillColor=none;align=left;verticalAlign=middle;spacingLeft=4;spacingRight=4;overflow=hidden;points=[[0,0.5],[1,0.5]];portConstraint=eastwest;rotatable=0;whiteSpace=wrap;html=1;" vertex="1" parent="WeHdpMZT5rW-bKwTxEje-25">
          <mxGeometry y="240" width="140" height="30" as="geometry" />
        </mxCell>
        <mxCell id="WeHdpMZT5rW-bKwTxEje-35" value="ID_adresu" style="text;strokeColor=none;fillColor=none;align=left;verticalAlign=middle;spacingLeft=4;spacingRight=4;overflow=hidden;points=[[0,0.5],[1,0.5]];portConstraint=eastwest;rotatable=0;whiteSpace=wrap;html=1;" vertex="1" parent="WeHdpMZT5rW-bKwTxEje-25">
          <mxGeometry y="270" width="140" height="30" as="geometry" />
        </mxCell>
        <mxCell id="WeHdpMZT5rW-bKwTxEje-36" value="FAKTURA" style="swimlane;fontStyle=0;childLayout=stackLayout;horizontal=1;startSize=30;horizontalStack=0;resizeParent=1;resizeParentMax=0;resizeLast=0;collapsible=1;marginBottom=0;whiteSpace=wrap;html=1;" vertex="1" parent="1">
          <mxGeometry x="-260" y="20" width="140" height="180" as="geometry" />
        </mxCell>
        <mxCell id="WeHdpMZT5rW-bKwTxEje-37" value="ID_faktury" style="text;strokeColor=none;fillColor=none;align=left;verticalAlign=middle;spacingLeft=4;spacingRight=4;overflow=hidden;points=[[0,0.5],[1,0.5]];portConstraint=eastwest;rotatable=0;whiteSpace=wrap;html=1;" vertex="1" parent="WeHdpMZT5rW-bKwTxEje-36">
          <mxGeometry y="30" width="140" height="30" as="geometry" />
        </mxCell>
        <mxCell id="WeHdpMZT5rW-bKwTxEje-41" value="ID_rezerwacji" style="text;strokeColor=none;fillColor=none;align=left;verticalAlign=middle;spacingLeft=4;spacingRight=4;overflow=hidden;points=[[0,0.5],[1,0.5]];portConstraint=eastwest;rotatable=0;whiteSpace=wrap;html=1;" vertex="1" parent="WeHdpMZT5rW-bKwTxEje-36">
          <mxGeometry y="60" width="140" height="30" as="geometry" />
        </mxCell>
        <mxCell id="WeHdpMZT5rW-bKwTxEje-38" value="Kwota" style="text;strokeColor=none;fillColor=none;align=left;verticalAlign=middle;spacingLeft=4;spacingRight=4;overflow=hidden;points=[[0,0.5],[1,0.5]];portConstraint=eastwest;rotatable=0;whiteSpace=wrap;html=1;" vertex="1" parent="WeHdpMZT5rW-bKwTxEje-36">
          <mxGeometry y="90" width="140" height="30" as="geometry" />
        </mxCell>
        <mxCell id="WeHdpMZT5rW-bKwTxEje-39" value="Status_platnosci" style="text;strokeColor=none;fillColor=none;align=left;verticalAlign=middle;spacingLeft=4;spacingRight=4;overflow=hidden;points=[[0,0.5],[1,0.5]];portConstraint=eastwest;rotatable=0;whiteSpace=wrap;html=1;" vertex="1" parent="WeHdpMZT5rW-bKwTxEje-36">
          <mxGeometry y="120" width="140" height="30" as="geometry" />
        </mxCell>
        <mxCell id="WeHdpMZT5rW-bKwTxEje-40" value="Data_platnosci" style="text;strokeColor=none;fillColor=none;align=left;verticalAlign=middle;spacingLeft=4;spacingRight=4;overflow=hidden;points=[[0,0.5],[1,0.5]];portConstraint=eastwest;rotatable=0;whiteSpace=wrap;html=1;" vertex="1" parent="WeHdpMZT5rW-bKwTxEje-36">
          <mxGeometry y="150" width="140" height="30" as="geometry" />
        </mxCell>
        <mxCell id="WeHdpMZT5rW-bKwTxEje-42" value="ADRES" style="swimlane;fontStyle=0;childLayout=stackLayout;horizontal=1;startSize=30;horizontalStack=0;resizeParent=1;resizeParentMax=0;resizeLast=0;collapsible=1;marginBottom=0;whiteSpace=wrap;html=1;" vertex="1" parent="1">
          <mxGeometry x="-460" y="350" width="140" height="210" as="geometry" />
        </mxCell>
        <mxCell id="WeHdpMZT5rW-bKwTxEje-43" value="ID_adresu" style="text;strokeColor=none;fillColor=none;align=left;verticalAlign=middle;spacingLeft=4;spacingRight=4;overflow=hidden;points=[[0,0.5],[1,0.5]];portConstraint=eastwest;rotatable=0;whiteSpace=wrap;html=1;" vertex="1" parent="WeHdpMZT5rW-bKwTxEje-42">
          <mxGeometry y="30" width="140" height="30" as="geometry" />
        </mxCell>
        <mxCell id="WeHdpMZT5rW-bKwTxEje-44" value="Miasto" style="text;strokeColor=none;fillColor=none;align=left;verticalAlign=middle;spacingLeft=4;spacingRight=4;overflow=hidden;points=[[0,0.5],[1,0.5]];portConstraint=eastwest;rotatable=0;whiteSpace=wrap;html=1;" vertex="1" parent="WeHdpMZT5rW-bKwTxEje-42">
          <mxGeometry y="60" width="140" height="30" as="geometry" />
        </mxCell>
        <mxCell id="WeHdpMZT5rW-bKwTxEje-45" value="Ulica" style="text;strokeColor=none;fillColor=none;align=left;verticalAlign=middle;spacingLeft=4;spacingRight=4;overflow=hidden;points=[[0,0.5],[1,0.5]];portConstraint=eastwest;rotatable=0;whiteSpace=wrap;html=1;" vertex="1" parent="WeHdpMZT5rW-bKwTxEje-42">
          <mxGeometry y="90" width="140" height="30" as="geometry" />
        </mxCell>
        <mxCell id="WeHdpMZT5rW-bKwTxEje-46" value="Nr_domu" style="text;strokeColor=none;fillColor=none;align=left;verticalAlign=middle;spacingLeft=4;spacingRight=4;overflow=hidden;points=[[0,0.5],[1,0.5]];portConstraint=eastwest;rotatable=0;whiteSpace=wrap;html=1;" vertex="1" parent="WeHdpMZT5rW-bKwTxEje-42">
          <mxGeometry y="120" width="140" height="30" as="geometry" />
        </mxCell>
        <mxCell id="WeHdpMZT5rW-bKwTxEje-47" value="Nr_mieszkania" style="text;strokeColor=none;fillColor=none;align=left;verticalAlign=middle;spacingLeft=4;spacingRight=4;overflow=hidden;points=[[0,0.5],[1,0.5]];portConstraint=eastwest;rotatable=0;whiteSpace=wrap;html=1;" vertex="1" parent="WeHdpMZT5rW-bKwTxEje-42">
          <mxGeometry y="150" width="140" height="30" as="geometry" />
        </mxCell>
        <mxCell id="WeHdpMZT5rW-bKwTxEje-48" value="Kod_pocztowy" style="text;strokeColor=none;fillColor=none;align=left;verticalAlign=middle;spacingLeft=4;spacingRight=4;overflow=hidden;points=[[0,0.5],[1,0.5]];portConstraint=eastwest;rotatable=0;whiteSpace=wrap;html=1;" vertex="1" parent="WeHdpMZT5rW-bKwTxEje-42">
          <mxGeometry y="180" width="140" height="30" as="geometry" />
        </mxCell>
        <mxCell id="WeHdpMZT5rW-bKwTxEje-51" value="SZCZEGOLY" style="swimlane;fontStyle=0;childLayout=stackLayout;horizontal=1;startSize=30;horizontalStack=0;resizeParent=1;resizeParentMax=0;resizeLast=0;collapsible=1;marginBottom=0;whiteSpace=wrap;html=1;" vertex="1" parent="1">
          <mxGeometry x="-680" y="20" width="140" height="120" as="geometry" />
        </mxCell>
        <mxCell id="WeHdpMZT5rW-bKwTxEje-52" value="ID_szczegolow" style="text;strokeColor=none;fillColor=none;align=left;verticalAlign=middle;spacingLeft=4;spacingRight=4;overflow=hidden;points=[[0,0.5],[1,0.5]];portConstraint=eastwest;rotatable=0;whiteSpace=wrap;html=1;" vertex="1" parent="WeHdpMZT5rW-bKwTxEje-51">
          <mxGeometry y="30" width="140" height="30" as="geometry" />
        </mxCell>
        <mxCell id="WeHdpMZT5rW-bKwTxEje-53" value="ID_rezerwacji" style="text;strokeColor=none;fillColor=none;align=left;verticalAlign=middle;spacingLeft=4;spacingRight=4;overflow=hidden;points=[[0,0.5],[1,0.5]];portConstraint=eastwest;rotatable=0;whiteSpace=wrap;html=1;" vertex="1" parent="WeHdpMZT5rW-bKwTxEje-51">
          <mxGeometry y="60" width="140" height="30" as="geometry" />
        </mxCell>
        <mxCell id="WeHdpMZT5rW-bKwTxEje-54" value="Nr_pokoju" style="text;strokeColor=none;fillColor=none;align=left;verticalAlign=middle;spacingLeft=4;spacingRight=4;overflow=hidden;points=[[0,0.5],[1,0.5]];portConstraint=eastwest;rotatable=0;whiteSpace=wrap;html=1;" vertex="1" parent="WeHdpMZT5rW-bKwTxEje-51">
          <mxGeometry y="90" width="140" height="30" as="geometry" />
        </mxCell>
        <mxCell id="WeHdpMZT5rW-bKwTxEje-66" value="" style="edgeStyle=entityRelationEdgeStyle;fontSize=12;html=1;endArrow=ERmandOne;startArrow=ERmandOne;rounded=0;exitX=1;exitY=0.5;exitDx=0;exitDy=0;" edge="1" parent="1" source="WeHdpMZT5rW-bKwTxEje-10" target="WeHdpMZT5rW-bKwTxEje-41">
          <mxGeometry width="100" height="100" relative="1" as="geometry">
            <mxPoint x="-510" y="400" as="sourcePoint" />
            <mxPoint x="-410" y="300" as="targetPoint" />
          </mxGeometry>
        </mxCell>
        <mxCell id="WeHdpMZT5rW-bKwTxEje-68" value="" style="edgeStyle=entityRelationEdgeStyle;fontSize=12;html=1;endArrow=ERoneToMany;startArrow=ERmandOne;rounded=0;exitX=1.007;exitY=0.3;exitDx=0;exitDy=0;exitPerimeter=0;" edge="1" parent="1" source="WeHdpMZT5rW-bKwTxEje-2" target="WeHdpMZT5rW-bKwTxEje-11">
          <mxGeometry width="100" height="100" relative="1" as="geometry">
            <mxPoint x="-510" y="400" as="sourcePoint" />
            <mxPoint x="-410" y="300" as="targetPoint" />
          </mxGeometry>
        </mxCell>
        <mxCell id="WeHdpMZT5rW-bKwTxEje-71" value="" style="edgeStyle=entityRelationEdgeStyle;fontSize=12;html=1;endArrow=ERoneToMany;startArrow=ERmandOne;rounded=0;exitX=1;exitY=0.5;exitDx=0;exitDy=0;" edge="1" parent="1" source="WeHdpMZT5rW-bKwTxEje-43" target="WeHdpMZT5rW-bKwTxEje-35">
          <mxGeometry width="100" height="100" relative="1" as="geometry">
            <mxPoint x="-660" y="335" as="sourcePoint" />
            <mxPoint x="-660" y="255" as="targetPoint" />
          </mxGeometry>
        </mxCell>
        <mxCell id="WeHdpMZT5rW-bKwTxEje-72" value="" style="edgeStyle=entityRelationEdgeStyle;fontSize=12;html=1;endArrow=ERoneToMany;startArrow=ERmandOne;rounded=0;" edge="1" parent="1" source="WeHdpMZT5rW-bKwTxEje-10" target="WeHdpMZT5rW-bKwTxEje-53">
          <mxGeometry width="100" height="100" relative="1" as="geometry">
            <mxPoint x="-470" y="60" as="sourcePoint" />
            <mxPoint x="-410" y="300" as="targetPoint" />
          </mxGeometry>
        </mxCell>
        <mxCell id="WeHdpMZT5rW-bKwTxEje-74" value="" style="edgeStyle=entityRelationEdgeStyle;fontSize=12;html=1;endArrow=ERoneToMany;startArrow=ERmandOne;rounded=0;" edge="1" parent="1" source="WeHdpMZT5rW-bKwTxEje-43" target="WeHdpMZT5rW-bKwTxEje-8">
          <mxGeometry width="100" height="100" relative="1" as="geometry">
            <mxPoint x="-810" y="330" as="sourcePoint" />
            <mxPoint x="-790" y="270" as="targetPoint" />
            <Array as="points">
              <mxPoint x="-820" y="320" />
            </Array>
          </mxGeometry>
        </mxCell>
        <mxCell id="WeHdpMZT5rW-bKwTxEje-75" value="" style="edgeStyle=entityRelationEdgeStyle;fontSize=12;html=1;endArrow=ERzeroToMany;startArrow=ERmandOne;rounded=0;" edge="1" parent="1" source="WeHdpMZT5rW-bKwTxEje-26" target="WeHdpMZT5rW-bKwTxEje-13">
          <mxGeometry width="100" height="100" relative="1" as="geometry">
            <mxPoint x="-510" y="400" as="sourcePoint" />
            <mxPoint x="-410" y="300" as="targetPoint" />
          </mxGeometry>
        </mxCell>
        <mxCell id="WeHdpMZT5rW-bKwTxEje-79" value="" style="edgeStyle=entityRelationEdgeStyle;fontSize=12;html=1;endArrow=ERoneToMany;startArrow=ERmandOne;rounded=0;exitX=1;exitY=0.5;exitDx=0;exitDy=0;" edge="1" parent="1" source="WeHdpMZT5rW-bKwTxEje-18" target="WeHdpMZT5rW-bKwTxEje-54">
          <mxGeometry width="100" height="100" relative="1" as="geometry">
            <mxPoint x="-740" y="260" as="sourcePoint" />
            <mxPoint x="-810" y="160" as="targetPoint" />
            <Array as="points">
              <mxPoint x="-830" y="215" />
              <mxPoint x="-840" y="215" />
            </Array>
          </mxGeometry>
        </mxCell>
        <mxCell id="WeHdpMZT5rW-bKwTxEje-81" value="STANOWISKA" style="swimlane;fontStyle=0;childLayout=stackLayout;horizontal=1;startSize=30;horizontalStack=0;resizeParent=1;resizeParentMax=0;resizeLast=0;collapsible=1;marginBottom=0;whiteSpace=wrap;html=1;" vertex="1" parent="1">
          <mxGeometry x="-260" y="560" width="140" height="120" as="geometry" />
        </mxCell>
        <mxCell id="WeHdpMZT5rW-bKwTxEje-82" value="ID_stanowiska" style="text;strokeColor=none;fillColor=none;align=left;verticalAlign=middle;spacingLeft=4;spacingRight=4;overflow=hidden;points=[[0,0.5],[1,0.5]];portConstraint=eastwest;rotatable=0;whiteSpace=wrap;html=1;" vertex="1" parent="WeHdpMZT5rW-bKwTxEje-81">
          <mxGeometry y="30" width="140" height="30" as="geometry" />
        </mxCell>
        <mxCell id="WeHdpMZT5rW-bKwTxEje-83" value="Nazwa" style="text;strokeColor=none;fillColor=none;align=left;verticalAlign=middle;spacingLeft=4;spacingRight=4;overflow=hidden;points=[[0,0.5],[1,0.5]];portConstraint=eastwest;rotatable=0;whiteSpace=wrap;html=1;" vertex="1" parent="WeHdpMZT5rW-bKwTxEje-81">
          <mxGeometry y="60" width="140" height="30" as="geometry" />
        </mxCell>
        <mxCell id="WeHdpMZT5rW-bKwTxEje-84" value="Wynagrodzenie" style="text;strokeColor=none;fillColor=none;align=left;verticalAlign=middle;spacingLeft=4;spacingRight=4;overflow=hidden;points=[[0,0.5],[1,0.5]];portConstraint=eastwest;rotatable=0;whiteSpace=wrap;html=1;" vertex="1" parent="WeHdpMZT5rW-bKwTxEje-81">
          <mxGeometry y="90" width="140" height="30" as="geometry" />
        </mxCell>
        <mxCell id="WeHdpMZT5rW-bKwTxEje-87" value="" style="edgeStyle=entityRelationEdgeStyle;fontSize=12;html=1;endArrow=ERzeroToMany;startArrow=ERmandOne;rounded=0;entryX=1;entryY=0.5;entryDx=0;entryDy=0;exitX=1;exitY=0.5;exitDx=0;exitDy=0;" edge="1" parent="1" source="WeHdpMZT5rW-bKwTxEje-82" target="WeHdpMZT5rW-bKwTxEje-31">
          <mxGeometry width="100" height="100" relative="1" as="geometry">
            <mxPoint x="-50" y="500" as="sourcePoint" />
            <mxPoint x="-90" y="300" as="targetPoint" />
          </mxGeometry>
        </mxCell>
      </root>
    </mxGraphModel>
  </diagram>
</mxfile>
